<?xml version="1.0" encoding="utf-8"?>
<!-- Generator: Adobe Illustrator 19.2.1, SVG Export Plug-In . SVG Version: 6.00 Build 0)  -->
<svg version="1.1" id="Layer_1" xmlns="http://www.w3.org/2000/svg" xmlns:xlink="http://www.w3.org/1999/xlink" x="0px" y="0px"
	 viewBox="0 0 18.1 18.1" enable-background="new 0 0 18.1 18.1" xml:space="preserve">
<rect fill="#FFFFFF" width="18.1" height="18.7"/>
<g>
	<g>
		<path fill="#427272" d="M9.5,15.3c0,0.8-0.6,1.4-1.4,1.4H3.7c-0.7,0-1.2-0.5-1.4-1.1c0-0.1,0-0.1,0-0.2v-4.2c0,0,0,0,0-0.1
			c0.1-0.6,0.4-0.9,0.9-1.1c0.1,0,0.2-0.1,0.4-0.1h4.6c0,0,0,0,0,0c0.7,0.1,1.2,0.7,1.2,1.4C9.5,12.6,9.5,13.9,9.5,15.3z"/>
	</g>
	<g>
		<path fill="#393E3E" d="M9.3,8.7c0,0.8-0.6,1.4-1.4,1.4H3.5c-0.7,0-1.2-0.5-1.4-1.1c0-0.1,0-0.1,0-0.2V4.6c0,0,0,0,0-0.1
			C2.2,4,2.5,3.6,3,3.4c0.1,0,0.2-0.1,0.4-0.1H8c0,0,0,0,0,0C8.8,3.4,9.3,4,9.3,4.7C9.3,6,9.3,7.3,9.3,8.7z"/>
	</g>
	<g>
		<path fill="#A35354" d="M16.5,15.3c0,0.8-0.6,1.4-1.4,1.4h-4.3c-0.7,0-1.2-0.5-1.4-1.1c0-0.1,0-0.1,0-0.2v-4.2c0,0,0,0,0-0.1
			c0.1-0.6,0.4-0.9,0.9-1.1c0.1,0,0.2-0.1,0.4-0.1h4.6c0,0,0,0,0,0c0.7,0.1,1.2,0.7,1.2,1.4C16.5,12.6,16.5,13.9,16.5,15.3z"/>
	</g>
	<path fill="#393E3E" d="M7,10.8c0,0-1.6,1.6-0.4,3.8c1,1.8,3.6,2,4.5,2c0.3,0,0.6,0,0.8-0.1c0.8-0.3,2.4-1.3,1.7-3.6
		c-1-3.1-1.7-4.9-1.3-5.5c0.5-0.8,2.5-0.7,1.7,0.7c-0.1,0.3-0.5,0.4-0.8,0.3l-0.3-0.1c0,0,0.3,1.5,1.7,1.7c1.5,0.3,2.4-1.1,2.4-2.7
		c-0.1-1.5-0.6-3.2-2.9-3.5"/>
	<path fill="#FFFFFF" d="M14.8,9.4c-1.4,0.2-1.8-1-1.8-1c0,0,1.4,1.3,1.6-0.8c0.1-1.4-1.7-1.6-2.2-0.9c-0.1,0.2-0.3,0.5-0.5,0.9
		c-0.2,0.4-0.3,1-0.3,1.7c0,0.6,0.2,1.4,0.7,2.2c0.1,0.2,0.1,0.3,0.2,0.5c0.1,0.4,0.2,0.8,0.3,1.2c0.1,0.5,0.1,0.9,0,1.4
		c-0.2,0.8-0.9,1.3-1.7,1.4c-0.3,0.1-0.7,0-1,0c-0.4,0-0.8-0.1-1.2-0.2c-0.4-0.1-0.7-0.3-1.1-0.6c-0.4-0.3-0.8-0.6-1-1.1
		c-0.3-0.5-0.4-1-0.4-1.6c0.1-0.6,0.3-1.2,0.6-1.7c0.1-0.2,0.2-0.4,0.3-0.5c0-0.1,0.1-0.1,0.1-0.2C7.5,10,7.6,9.9,7.7,9.8
		c0,0-0.2,4.3,1.9,3.6c0.4-0.1,0.7-0.4,0.8-0.8c0.1-0.4,0.1-0.8,0-1.2c-0.1-0.3-0.2-0.6-0.3-0.9c0,0,0,0,0,0c0-0.1-0.1-0.1-0.1-0.2
		c-0.1-0.2-0.2-0.5-0.3-0.7c-0.1-0.3-0.2-0.7-0.2-1c0-0.3-0.1-0.7-0.1-1c0-0.1,0-0.1,0-0.2c0,0,0-0.1,0-0.1c0,0,0,0,0,0
		c0-0.3,0.1-0.7,0.2-1c0-0.1,0.1-0.2,0.1-0.4c0.1-0.2,0.2-0.4,0.3-0.6c0.2-0.3,0.5-0.6,0.8-0.8c0.4-0.3,0.8-0.4,1.3-0.5
		c0.2,0,0.3-0.1,0.5-0.1C17.5,3.2,17.2,9.1,14.8,9.4z"/>
	<path fill="#393E3E" d="M10.5,12.6c-0.1,0.4-0.4,0.7-0.8,0.8c-2.1,0.7-1.9-3.6-1.9-3.6C7.6,9.9,7.5,10,7.5,10.1
		C7.9,9,7.9,7.4,7.8,6.7c0-0.1,0.1-0.2,0.3-0.2c0.6,0.2,1,0.4,1.4,0.7c0,0,0,0,0,0c0,0,0,0.1,0,0.1c0,0.1,0,0.1,0,0.2
		c0,0.3,0,0.7,0.1,1c0,0.3,0.1,0.7,0.2,1c0.1,0.2,0.2,0.5,0.3,0.7c-0.2,0.2-0.4,0.3-0.4,0.3c0.2,0,0.3-0.1,0.5-0.1
		c0.1,0.3,0.2,0.6,0.3,0.9C10.5,11.8,10.6,12.2,10.5,12.6z"/>
	<path fill="#393E3E" d="M3.5,10c0,0,1.7,2.2,3.1,2.1s1.3-3,1.3-3S4.5,10.7,3.5,10z"/>
	<path fill="#393E3E" d="M10.2,5.1c0-0.1-0.5-1.4,0.1-2.5c0.6-1.1,1.2-1.5,1.3-1.1c0.1,0.4,0.1,1.7,0.1,1.7s0.8-1.7,0.5-1.8
		C11.9,1.1,10.7,1,10.7,1s-1,1.1-1.1,1.2C9.5,2.4,9.2,3,9.1,3.2C9,3.3,8.6,4.1,8.6,4.1s0,0.6-0.1,0.8c-0.1,0.2-0.1,0.5,0,0.6
		c0.1,0.1,0.7,0.5,0.9,0.5S10.2,5.1,10.2,5.1z"/>
	<path fill="#393E3E" d="M3.5,10c0,0,3.5-0.7,2.8-3.1S6,4.3,6,4.3l0.6,0.9c0,0,0.5,2.8,0.5,2.9S6.7,9.4,6.5,9.7S5.3,10.2,5,10.3
		C4.8,10.3,3.5,10,3.5,10z"/>
	<path fill="#393E3E" d="M6,4.3c0,0,0.2-0.3,0.9,0.2c0,0,0.3,0,0.4-0.3s0.7-2.2,2-3s2.1-1,2.8-0.6c0,0-0.3,0-0.5,0.1
		c-0.2,0-1.3,0.5-1.6,0.7C9.7,1.7,9.2,2.6,9.1,2.9S8.5,4,8.5,4.1c0,0.1-0.2,0.6-0.3,0.8C8.1,5,7.9,5.2,7.8,5.3
		C7.7,5.5,7.7,5.5,7.6,5.6C7.5,5.7,7.1,5.6,7,5.6c0-0.1-0.6-0.7-0.6-0.7C6.4,4.8,6,4.3,6,4.3z"/>
	<path fill="none" d="M9,5.9c0,0,3.4-1,3.1,1.7"/>
	<path fill="#393E3E" d="M9.1,7c0,0,2.7,1.6,0.5,3.6l0.8-0.5c0,0,0.5-1.2,0.5-1.3c0.1-0.1,0.3-0.9,0.1-1c-0.1-0.1-1-0.6-1.1-0.8
		C10,6.8,9.3,6.2,9,6.2s-1-0.1-1-0.1L7.8,6.4l0.1,0.4L9.1,7z"/>
	<path fill="#393E3E" d="M9.2,5L8.9,5.8l1.1,0c0,0,0.4-1,1.1-1.4L9.2,5z"/>
	<path fill="#393E3E" d="M11.7,3.1c0,0,1.9-1.8,0.3-2.4"/>
	<path fill="#FFFFFF" d="M11.9,7.5c0.1,0.5,0,1.2-0.3,1.7c-0.3,0.5-0.7,1-1.5,1.2c-0.1,0-0.3,0.1-0.5,0.1c0,0,0.2-0.1,0.4-0.3
		c0.6-0.6,1.3-1.9-0.6-3.1C9.1,7,8.6,6.8,8.1,6.5C8,6.5,7.8,6.6,7.8,6.7c0,0.7,0.1,2.3-0.4,3.4c-0.1,0.3-0.3,0.5-0.4,0.7
		c-0.6,0.6-1.7,0.6-3.5-0.9c0,0,4.5,0.6,2.5-5.5c0-0.1,0.1-0.1,0.1-0.1l0.8,0.5c0.1,0.1,0.2,0,0.3-0.1C7.5,3.9,9,0.6,11.6,0.6
		c1.5,0,0.3,2.3,0.2,2.4c0,0,0.3-1.6-0.4-1.8C10.8,1,10.2,1.7,9.9,2.5c0,0-0.8,2.8-1.1,3.3c0,0,0,0,0,0c0,0,0.4,0,1,0
		c0.7,0.1,1.5,0.2,1.8,0.6C11.7,6.7,11.9,7.1,11.9,7.5z"/>
	<polyline fill="#548889" points="8.8,5.8 8.8,5.8 8.9,5.8 	"/>
</g>
</svg>
